<svg width="200" height="73" viewBox="0 0 200 73" fill="none" xmlns="http://www.w3.org/2000/svg">
<path d="M46.7635 1.30824L56.8032 0V60.1792H46.7635V1.30824Z" fill="#F0E2D7"/>
<path d="M103.038 60.1792H92.8666V52.5914C89.1678 57.8244 84.5443 61.095 78.2034 61.095C70.9379 61.095 65.6539 56.1237 65.6539 46.181V16.353L75.6935 15.1756V42.7796C75.6935 49.9749 78.5997 53.3763 84.4121 53.3763C87.1863 53.3763 90.2246 52.4606 92.8666 50.8907V16.353L103.038 15.1756V60.1792Z" fill="#F0E2D7"/>
<path d="M139.234 26.0341H122.325V60.1792H112.285V16.353L122.325 15.1756V24.595C125.231 19.362 130.383 15.1756 137.517 15.1756C137.913 15.1756 138.705 15.1756 139.102 15.3065V26.0341H139.234Z" fill="#F0E2D7"/>
<path d="M189.96 1.30824L200 0V60.1792H189.96V1.30824Z" fill="#F0E2D7"/>
<path d="M23.1176 14.914C17.1731 14.914 12.6816 18.1846 10.0396 22.7635V15.1756L0 16.353V73L10.0396 72.2151V59.3943C12.6816 60.4409 15.8521 60.9642 18.8904 60.9642C31.9683 60.9642 40.6869 51.0215 40.6869 36.6308C40.5548 22.5018 31.8362 14.914 23.1176 14.914ZM18.6262 55.862C15.1916 55.862 12.0211 54.2921 10.0396 52.0681V24.7258C11.7569 23.4176 14.5311 22.371 17.3052 22.371C25.0991 22.371 29.9868 29.5663 29.9868 40.0323C29.8547 51.1523 24.4386 55.862 18.6262 55.862Z" fill="#F0E2D7"/>
<path d="M181.77 60.1792H171.598V53.2455C168.956 57.9552 164.201 61.095 158.52 61.095C149.141 61.095 140.951 52.853 140.951 39.2473C140.951 24.7258 149.802 14.7831 162.748 14.7831C166.182 14.7831 170.013 15.6989 173.184 17.5305L181.77 14.7831V60.1792ZM171.466 51.1523V23.81C169.089 21.4552 166.182 20.0161 162.748 20.0161C157.199 20.0161 151.519 24.7258 151.519 35.715C151.519 46.8351 156.539 53.638 164.201 53.638C166.975 53.638 169.617 52.5914 171.466 51.1523Z" fill="#F0E2D7"/>
</svg>
